<?xml version="1.0" encoding="utf-8"?>
<svg version="1.1" x="0px" y="0px" width="854px" height="195px" enable-background="new 0 0 854 195" viewBox="266.046 68.642 27.457 25.09" xmlns="http://www.w3.org/2000/svg">
  <style type="text/css">

	.c0 path{fill:#808184;}
	.c1 path{fill:#EC3D2D;}

</style>
  <g class="c1" style="" transform="matrix(0.074204, 0, 0, 0.071029, 271.54364, 73.449982)">
    <path d="M184.021,54.824l-5.99-10.375l-37.17,21.46c2.361,3.207,4.375,6.683,5.996,10.371L184.021,54.824z" style="fill: rgb(255, 255, 255);"/>
    <path d="M178.03,151.9l5.99-10.374l-37.161-21.455c-1.621,3.688-3.634,7.165-5.996,10.372L178.03,151.9z" style="fill: rgb(255, 255, 255);"/>
    <path d="M102.945,44.02V1.099h-11.98v42.919c1.967-0.215,3.963-0.334,5.987-0.334 C98.979,43.685,100.977,43.804,102.945,44.02z" style="fill: rgb(255, 255, 255);"/>
    <path d="M191.518,120.932l2.08-11.798l-42.271-7.453c-0.259,4.071-0.965,8.019-2.07,11.8L191.518,120.932z" style="fill: rgb(255, 255, 255);"/>
    <path d="M193.597,87.218l-2.081-11.799l-42.261,7.452c1.105,3.78,1.812,7.729,2.071,11.8L193.597,87.218z" style="fill: rgb(255, 255, 255);"/>
    <path d="M127.181,143.517l27.584,32.875l9.178-7.701l-27.594-32.886C133.587,138.695,130.518,141.288,127.181,143.517z " style="fill: rgb(255, 255, 255);"/>
    <path d="M136.348,60.548l27.595-32.887l-9.177-7.702l-27.586,32.876C130.516,55.064,133.585,57.657,136.348,60.548z" style="fill: rgb(255, 255, 255);"/>
    <path d="M124.528,191.446l11.258-4.098l-14.677-40.325c-3.551,1.759-7.321,3.139-11.259,4.095L124.528,191.446z" style="fill: rgb(255, 255, 255);"/>
    <path d="M135.785,9.003l-11.256-4.1l-14.679,40.33c3.938,0.956,7.707,2.336,11.257,4.095L135.785,9.003z" style="fill: rgb(255, 255, 255);"/>
    <path d="M90.965,152.333v42.919h11.98v-42.92c-1.969,0.216-3.966,0.335-5.993,0.335 C94.928,152.667,92.933,152.548,90.965,152.333z" style="fill: rgb(255, 255, 255);"/>
    <path d="M0.313,109.135l2.08,11.797l42.26-7.451c-1.104-3.78-1.811-7.729-2.07-11.8L0.313,109.135z" style="fill: rgb(255, 255, 255);"/>
    <path d="M9.889,141.527l5.991,10.374l37.167-21.458c-2.361-3.207-4.374-6.684-5.995-10.372L9.889,141.527z" style="fill: rgb(255, 255, 255);"/>
    <path d="M2.394,75.42l-2.08,11.797l42.271,7.453c0.259-4.071,0.966-8.019,2.071-11.799L2.394,75.42z" style="fill: rgb(255, 255, 255);"/>
    <path d="M69.382,4.905L58.124,9.002l14.678,40.327c3.551-1.759,7.321-3.14,11.258-4.096L69.382,4.905z" style="fill: rgb(255, 255, 255);"/>
    <path d="M15.88,44.451L9.889,54.826l37.164,21.456c1.622-3.689,3.635-7.165,5.996-10.372L15.88,44.451z" style="fill: rgb(255, 255, 255);"/>
    <path d="M58.126,187.35l11.257,4.098l14.678-40.328c-3.938-0.955-7.707-2.336-11.258-4.095L58.126,187.35z" style="fill: rgb(255, 255, 255);"/>
    <path d="M57.561,135.806L29.968,168.69l9.176,7.701l27.584-32.874C63.392,141.289,60.323,138.696,57.561,135.806z" style="fill: rgb(255, 255, 255);"/>
    <path d="M66.73,52.835L39.144,19.959l-9.177,7.701l27.595,32.887C60.324,57.657,63.394,55.064,66.73,52.835z" style="fill: rgb(255, 255, 255);"/>
  </g>
</svg>